<svg width="19" height="19" viewBox="0 0 19 19" fill="none" xmlns="http://www.w3.org/2000/svg">
<rect width="19" height="19" fill="#1E1E1E"/>
<g clip-path="url(#clip0_0_1)">
<rect width="1920" height="6697" transform="translate(-1622 -53)" fill="white"/>
<path d="M297.5 937.528L-1088.44 -52.5H297.5V937.528Z" fill="#E24413" stroke="black"/>
<path d="M9.49967 17.0914C13.8719 17.0914 17.4163 13.6132 17.4163 9.32257C17.4163 5.03195 13.8719 1.55371 9.49967 1.55371C5.12742 1.55371 1.58301 5.03195 1.58301 9.32257C1.58301 13.6132 5.12742 17.0914 9.49967 17.0914Z" stroke="white" stroke-linecap="round" stroke-linejoin="round"/>
<path d="M6.33294 2.33057H7.12461C5.58086 6.86758 5.58086 11.7775 7.12461 16.3145H6.33294" stroke="white" stroke-linecap="round" stroke-linejoin="round"/>
<path d="M11.875 2.33057C13.4188 6.86758 13.4188 11.7775 11.875 16.3145" stroke="white" stroke-linecap="round" stroke-linejoin="round"/>
<path d="M2.375 12.4302V11.6533C6.99833 13.1682 12.0017 13.1682 16.625 11.6533V12.4302" stroke="white" stroke-linecap="round" stroke-linejoin="round"/>
<path d="M2.375 6.99191C6.99833 5.47698 12.0017 5.47698 16.625 6.99191" stroke="white" stroke-linecap="round" stroke-linejoin="round"/>
</g>
<defs>
<clipPath id="clip0_0_1">
<rect width="1920" height="6697" fill="white" transform="translate(-1622 -53)"/>
</clipPath>
</defs>
</svg>
