<svg width="17" height="26" viewBox="0 0 17 26" fill="none" xmlns="http://www.w3.org/2000/svg">
<g id="Group 19755">
<g id="Group 17">
<g id="Rectangle 22">
<path id="Vector" d="M8.3 0.5H8.299C3.99173 0.5 0.5 3.99173 0.5 8.299V17.429C0.5 21.7363 3.99173 25.228 8.299 25.228H8.3C12.6073 25.228 16.099 21.7363 16.099 17.429V8.299C16.099 3.99173 12.6073 0.5 8.3 0.5Z" stroke="#333333"/>
</g>
<path id="Rectangle 23" d="M9.12899 5.80998C9.12899 5.35158 8.75739 4.97998 8.29899 4.97998C7.8406 4.97998 7.46899 5.35158 7.46899 5.80998V9.12998C7.46899 9.58838 7.8406 9.95998 8.29899 9.95998C8.75739 9.95998 9.12899 9.58838 9.12899 9.12998V5.80998Z" fill="#E24413"/>
</g>
</g>
</svg>
